<svg width="48" height="48" viewBox="0 0 48 48" fill="none" xmlns="http://www.w3.org/2000/svg">
<path fill-rule="evenodd" clip-rule="evenodd" d="M14.2585 7.20402C9.87961 8.13353 6.41222 11.4217 5.3238 15.6766C4.70279 18.105 4.99113 21.1756 6.05066 23.415C6.27876 23.8971 6.46547 24.3393 6.46547 24.3976C6.46547 24.4561 6.22437 24.5038 5.9297 24.5038C5.28434 24.5038 5.00428 24.7496 5.00428 25.3154C5.00428 25.9831 5.28613 26.1271 6.59292 26.1271H7.7919L7.19606 25.3154L6.60022 24.5038H11.1229H15.6456L16.4868 22.8126C17.8833 20.0051 18.2048 20.159 19.9228 24.4587C20.606 26.1687 21.2056 27.6081 21.2551 27.6576C21.3045 27.7071 22.0596 25.3445 22.9329 22.4074C23.8064 19.4703 24.6009 16.9873 24.6986 16.8896C24.9399 16.6484 25.7067 16.6646 25.9148 16.9154C26.0077 17.0274 26.794 19.1824 27.6619 21.7042C28.5299 24.226 29.2941 26.2894 29.3602 26.2894C29.4262 26.2894 29.5724 26.0674 29.6849 25.7958C29.7974 25.5244 30.0307 25.1226 30.2034 24.903L30.5174 24.5038H35.9584H41.3992L40.8034 25.3154L40.2075 26.1271H41.4065C42.7133 26.1271 42.9951 25.9831 42.9951 25.3154C42.9951 24.7496 42.7151 24.5038 42.0697 24.5038C41.7751 24.5038 41.534 24.4444 41.534 24.3718C41.534 24.2992 41.7228 23.8486 41.9535 23.3702C43.0086 21.1836 43.2973 18.1072 42.6756 15.6766C41.3132 10.3505 36.2354 6.65079 30.8077 7.02935C28.6146 7.18242 26.4875 7.9462 24.7709 9.19713L23.9997 9.75913L23.2285 9.19713C20.7497 7.39086 17.1482 6.59056 14.2585 7.20402ZM25.2474 20.6956C23.2849 27.2969 22.1503 30.958 22.0172 31.1188C21.7347 31.4602 20.9484 31.3636 20.6963 30.9565C20.5718 30.7555 19.8991 29.1486 19.2013 27.3852C18.5035 25.6218 17.8913 24.1793 17.8408 24.1796C17.7903 24.1798 17.5299 24.5999 17.262 25.113L16.775 26.0459L12.3461 26.1271L7.91724 26.2083L14.6191 32.8845C20.9249 39.1661 21.3736 39.5778 22.2138 39.851C23.3505 40.2205 24.6486 40.2207 25.7856 39.8512C26.6263 39.578 27.0732 39.1678 33.4163 32.8452L40.154 26.1294L35.8124 26.1282L31.4709 26.1271L30.6596 27.7438C29.7669 29.5223 29.3967 29.8679 28.8013 29.4778C28.5158 29.2908 28.1347 28.3733 27.1617 25.5297C25.4396 20.4968 25.3637 20.3049 25.2474 20.6956Z" fill="#505AEE"/>
</svg>
