<svg width="48" height="48" viewBox="0 0 48 48" fill="none" xmlns="http://www.w3.org/2000/svg">
<path fill-rule="evenodd" clip-rule="evenodd" d="M9.38284 5.11919C7.72456 5.41859 6.29749 6.51466 5.52845 8.07914L5 9.15442V13.6511C5 17.8282 5.02813 18.2083 5.39493 19.0005C5.97213 20.247 6.85294 21.1548 8.06004 21.7471L9.12556 22.2698H13.6262C17.8069 22.2698 18.1873 22.2417 18.9802 21.8752C20.2278 21.2985 21.1364 20.4185 21.7291 19.2124L22.2523 18.1478V13.6511V9.15442L21.7291 8.08982C21.1337 6.87852 20.2199 5.99623 18.9802 5.43564C18.2177 5.09071 17.7071 5.04499 14.1887 5.00602C12.0228 4.98204 9.8601 5.033 9.38284 5.11919ZM29.1736 5.12312C27.4497 5.43246 26.0123 6.58886 25.211 8.31128C24.8472 9.09296 24.8187 9.4823 24.8187 13.6511C24.8187 17.8282 24.8469 18.2083 25.2137 19.0005C25.7909 20.247 26.6717 21.1548 27.8788 21.7471L28.9443 22.2698H33.4449C37.6256 22.2698 38.0061 22.2417 38.7989 21.8752C40.0456 21.2989 40.9555 20.4181 41.5426 19.2192C42.0428 18.1978 42.063 18.0377 42.1343 14.5758C42.244 9.24735 41.8187 7.52361 40.0647 6.18697C38.6997 5.14673 38.2553 5.06035 34.0075 5.00958C31.8416 4.98372 29.6663 5.03487 29.1736 5.12312ZM8.99485 25.8412C7.28669 26.3156 5.8253 27.664 5.24397 29.302C5.07013 29.7921 5 31.2547 5 34.3928V38.7958L5.53463 39.8838C6.14972 41.135 7.4804 42.3047 8.71525 42.6795C9.25308 42.8427 10.8605 42.9178 13.8137 42.9178C17.8037 42.9178 18.1907 42.8882 18.9802 42.5232C20.2278 41.9465 21.1364 41.0665 21.7291 39.8604L22.2523 38.7958V34.2991V29.8024L21.7291 28.7378C21.136 27.5312 20.2269 26.651 18.9802 26.076C18.2061 25.7188 17.7435 25.6784 14.0012 25.6394C11.0636 25.6089 9.62194 25.6669 8.99485 25.8412ZM28.6986 25.8474C26.7769 26.3801 25.227 28.041 24.8187 30.0057C24.6813 30.6675 24.626 32.4626 24.6672 34.9221C24.7253 38.3748 24.775 38.8886 25.1253 39.6485C25.6982 40.8922 26.5803 41.8026 27.7816 42.3898C28.8038 42.8895 28.9642 42.9097 32.4291 42.9809C36.778 43.0703 38.3202 42.8614 39.5954 42.01C41.6975 40.6063 42.1592 38.9778 42.0439 33.3745C41.9726 29.9126 41.9524 29.7524 41.4522 28.7311C40.8647 27.5316 39.9545 26.6504 38.7085 26.076C37.9344 25.7188 37.4718 25.6784 33.7296 25.6394C30.743 25.6085 29.354 25.6658 28.6986 25.8474Z" fill="#505AEE"/>
</svg>
