<svg width="48" height="48" viewBox="0 0 48 48" fill="none" xmlns="http://www.w3.org/2000/svg">
<path fill-rule="evenodd" clip-rule="evenodd" d="M22.4872 5.15135C21.0174 5.43959 19.0118 6.7515 17.792 8.22264C16.1435 10.2109 15.7257 12.1594 16.306 15.1542C16.4013 15.6465 16.3765 15.7317 16.1182 15.7993C15.4436 15.9758 15.3266 16.9923 15.7888 18.6603C16.1537 19.9773 16.5801 20.8492 16.9577 21.0513C17.1162 21.1362 17.2826 21.4447 17.3414 21.7632C17.6197 23.2699 19.1106 25.445 20.546 26.4386C21.7134 27.2467 22.6279 27.5312 24.0548 27.5303C25.1398 27.5297 25.3654 27.4761 26.3675 26.9807C28.2794 26.036 29.9222 24.0531 30.5334 21.9532C30.6405 21.5849 30.9091 21.0999 31.1304 20.8755C31.5652 20.4344 32.2374 18.6163 32.3949 17.4556C32.508 16.6215 32.2642 15.9157 31.8231 15.8003C31.5638 15.7325 31.5328 15.6457 31.6194 15.2282C32.2822 12.0325 31.9277 9.49556 30.6582 8.34868C30.3341 8.05582 29.9935 7.81624 29.9014 7.81624C29.8093 7.81624 29.391 7.46445 28.9718 7.03454C27.3374 5.35804 24.9581 4.66712 22.4872 5.15135ZM8.82466 31.3653C8.82466 31.3653 8.74152 31.5479 8.647 31.7605C8.53542 31.9639 8.43321 32.1898 8.33271 32.4443C8.01322 33.2534 7.98256 33.5397 8.00623 35.4949C8.02066 36.6817 8.08569 38.0207 8.15072 38.4705C8.26486 39.2588 8.29626 39.3033 9.01322 39.696C10.3327 40.4187 13.4272 41.5589 15.3377 42.0263C18.5197 42.8046 20.2511 43 23.9686 43C27.4737 43 29.2643 42.8153 32.0788 42.164C34.5257 41.5976 38.6099 40.0409 39.4751 39.3446C39.8613 39.0341 40.1633 35.1406 39.9086 33.7579C39.7074 32.6661 39.4653 31.92 39.0213 31.3485C37.382 29.0147 33.9005 27.2739 30.9463 26.2071C30.4581 26.0309 29.9734 25.8866 29.869 25.8866C29.7648 25.8866 29.3808 26.1943 29.0156 26.5701C27.2933 28.3433 25.4398 29.2137 23.6998 29.0668C22.1382 28.9349 20.8447 28.2731 19.2507 26.7907C18.7161 26.2935 18.1669 25.8928 18.0304 25.9003C17.8938 25.9079 17.481 26.0289 17.1131 26.1692C14.0129 27.3521 10.4429 29.0463 8.82466 31.3653Z" fill="#505AEE"/>
</svg>
