<svg width="48" height="48" viewBox="0 0 48 48" fill="none" xmlns="http://www.w3.org/2000/svg">
<path fill-rule="evenodd" clip-rule="evenodd" d="M14.3491 11.7952C9.20694 13.875 4.99985 15.6105 5 15.6518C5.00015 15.693 9.25746 17.4441 14.4606 19.5432L23.9209 23.3596L31.2249 20.4204L38.5287 17.4812V22.8701C38.5287 26.5581 38.5096 26.9587 38.2678 27.0484C37.235 27.4314 36.293 28.8831 36.293 30.0917C36.293 31.0384 36.9102 32.2518 37.6384 32.7367L38.2018 33.1119L37.322 35.759C36.838 37.2148 36.442 38.4863 36.442 38.5844C36.442 38.7327 38.0383 39.3902 38.3985 39.3902C38.4591 39.3902 38.7633 38.6112 39.0748 37.6593L39.6408 35.9285L40.1989 37.6055C40.5057 38.528 40.7877 39.3137 40.8256 39.3518C40.9556 39.4826 42.851 38.7658 42.851 38.5859C42.851 38.4869 42.4549 37.2148 41.971 35.759L41.0912 33.1119L41.6546 32.7367C42.3828 32.2518 43 31.0384 43 30.0917C43 28.8831 42.058 27.4314 41.0252 27.0484C40.7828 26.9586 40.7643 26.5368 40.7643 22.4233V16.5875L41.8072 16.157C42.3807 15.9204 42.8489 15.693 42.8475 15.6518C42.8444 15.554 24.0431 7.98233 23.8477 8.00003C23.7658 8.00753 19.4915 9.7153 14.3491 11.7952ZM13.8221 23.6233C13.8913 25.2354 13.9548 27.5454 14.2837 28.1984C15.0677 29.7553 17.0632 31.0611 19.6805 31.7299C20.8443 32.0273 21.3894 32.0711 23.9223 32.0711C26.4551 32.0711 27.0002 32.0273 28.1641 31.7299C30.7813 31.0611 32.7769 29.7553 33.5608 28.1984C33.8898 27.5454 33.9533 25.2354 34.0224 23.6233C34.1025 21.7589 34.1019 21.7541 33.778 21.8393C33.5993 21.8863 31.3088 22.787 28.6877 23.841L23.9223 25.7573L19.1569 23.841C16.5358 22.787 14.2452 21.8863 14.0665 21.8393C13.7427 21.7541 13.7421 21.7589 13.8221 23.6233Z" fill="#505AEE"/>
</svg>
