<svg width="48" height="48" viewBox="0 0 48 48" fill="none" xmlns="http://www.w3.org/2000/svg">
<path fill-rule="evenodd" clip-rule="evenodd" d="M27.963 6.17009C25.6245 6.72015 23.5154 8.85227 22.97 11.2175C22.8873 11.5756 22.8181 12.5865 22.8161 13.4637L22.8125 15.0589H19.7629C15.6826 15.0589 15.9844 14.7631 15.9844 18.7618V21.7361L23.5918 21.737C28.6372 21.7374 31.3992 21.7925 31.793 21.9001C32.6003 22.1209 33.6835 23.2478 33.9253 24.1184C34.0632 24.6153 34.0973 26.8994 34.0639 33.3842L34.0195 41.9904L33.5813 42.8807C33.3403 43.3704 33.1176 43.8211 33.0866 43.8823C32.9947 44.0628 40.0321 44.0123 40.6992 43.8277C41.487 43.6096 42.6158 42.4811 42.834 41.6937C42.9482 41.2812 42.9987 37.2405 42.9991 28.4438L43 15.7873L42.6356 15.4231C42.2725 15.06 42.2617 15.0589 39.2215 15.0589H36.1719L36.1683 13.4637C36.1622 10.8397 35.6718 9.49255 34.1787 7.99996C32.5182 6.34014 30.1738 5.65001 27.963 6.17009ZM31.4867 8.74143C32.4096 9.19281 33.1109 9.92434 33.553 10.8966C33.7917 11.4217 33.8729 11.9594 33.9183 13.3153L33.9766 15.0589H29.5078H25.0391V13.602C25.0391 11.9237 25.2856 10.9262 25.915 10.0576C27.1626 8.33605 29.5194 7.77931 31.4867 8.74143ZM5.36441 24.3261L5 24.6903L5.00089 32.8953C5.00134 38.4367 5.05507 41.2927 5.16595 41.6937C5.38416 42.4811 6.51302 43.6096 7.30078 43.8277C8.13129 44.0574 28.7359 44.0574 29.5664 43.8277C30.3542 43.6096 31.483 42.4811 31.7012 41.6937C31.8121 41.2927 31.8659 38.4367 31.8663 32.8953L31.8672 24.6903L31.5028 24.3261L31.1385 23.9619H18.4336H5.72868L5.36441 24.3261ZM13.4793 28.6953C13.785 28.9426 13.8386 29.1467 13.9175 30.3646C14.0603 32.5688 14.788 33.8098 16.4027 34.6024C17.4955 35.1388 19.0998 35.181 20.1482 34.701C21.8569 33.9184 22.6558 32.6203 22.7997 30.3921C22.8802 29.1461 22.9327 28.9434 23.2394 28.6953C23.7138 28.3113 24.2382 28.3414 24.6746 28.7776C24.9996 29.1023 25.0389 29.267 25.0373 30.2986C25.0342 32.4021 24.4272 33.9227 23.0357 35.3138C20.3603 37.9881 16.3752 37.9881 13.6747 35.3138C12.2932 33.9455 11.6847 32.4145 11.6815 30.2986C11.6798 29.267 11.7192 29.1023 12.0441 28.7776C12.4805 28.3414 13.0049 28.3113 13.4793 28.6953Z" fill="#505AEE"/>
</svg>
