<svg width="48" height="48" viewBox="0 0 48 48" fill="none" xmlns="http://www.w3.org/2000/svg">
<path fill-rule="evenodd" clip-rule="evenodd" d="M5.36441 5.36441L5 5.72868V12.793V19.8573L5.36441 20.2215C5.71265 20.5699 5.81121 20.5859 7.59766 20.5859C9.3841 20.5859 9.48266 20.5699 9.8309 20.2215C10.1874 19.8651 10.1953 19.8059 10.1953 17.4833V15.1093L10.9746 15.0644L11.7539 15.0195V12.793V10.5664L10.9746 10.5216L10.1953 10.4766V8.10264C10.1953 5.78004 10.1874 5.72081 9.8309 5.36441C9.48266 5.01603 9.3841 5 7.59766 5C5.81121 5 5.71265 5.01603 5.36441 5.36441ZM38.1691 5.36441C37.8126 5.72081 37.8047 5.78004 37.8047 8.10264V10.4766L37.0254 10.5216L36.2461 10.5664V12.793V15.0195L37.0254 15.0644L37.8047 15.1093V17.4833C37.8047 19.8059 37.8126 19.8651 38.1691 20.2215C38.5173 20.5699 38.6159 20.5859 40.4023 20.5859C42.1888 20.5859 42.2874 20.5699 42.6356 20.2215L43 19.8573V12.793V5.72868L42.6356 5.36441C42.2874 5.01603 42.1888 5 40.4023 5C38.6159 5 38.5173 5.01603 38.1691 5.36441ZM15.4651 6.71816C14.1966 7.3796 14.0134 7.84495 13.9348 10.6035C13.8991 11.8486 13.9165 12.8672 13.973 12.8672C14.0297 12.8672 14.3551 12.7054 14.6962 12.5078C15.9615 11.7745 16.7655 11.6537 20.0306 11.7058C22.9749 11.753 23.0521 11.7622 23.8817 12.1695C24.9142 12.6766 25.9646 13.8034 26.2871 14.75C26.4186 15.1358 26.5234 15.9257 26.5234 16.5303C26.5234 17.7331 26.5778 17.7846 27.4583 17.4166C28.062 17.1643 28.8965 16.2278 28.9044 15.7936C28.909 15.5358 28.9728 15.5901 29.2001 16.0457C29.6087 16.8646 29.8812 17.1259 30.6224 17.4089C31.4562 17.7273 32.3134 17.6164 32.9861 17.1033C33.9887 16.3387 34.0195 16.188 34.0195 12.0508C34.0195 7.91353 33.9887 7.76287 32.9861 6.99827C32.3134 6.48512 31.4562 6.37423 30.6224 6.69263C29.8812 6.9757 29.6087 7.23695 29.2001 8.05588C28.9692 8.51856 28.9091 8.56888 28.9044 8.30318C28.8961 7.83664 27.9441 6.83231 27.3127 6.62391C26.1804 6.25014 24.8136 6.80203 24.3432 7.82298C24.1952 8.14391 24.0408 8.40634 24 8.40634C23.9592 8.40634 23.8048 8.14391 23.6568 7.82298C23.1864 6.80203 21.8196 6.25014 20.6873 6.62391C20.0559 6.83231 19.1039 7.83664 19.0956 8.30318C19.0909 8.57052 19.0331 8.52331 18.8042 8.06464C18.4017 7.25833 18.2173 7.06773 17.543 6.76091C16.8112 6.42812 16.0516 6.41253 15.4651 6.71816ZM16.207 14.2509C15.3292 14.666 14.4678 15.5696 14.184 16.3731C14.0302 16.8085 13.9805 17.9644 13.9805 21.1055C13.9805 24.7109 14.0165 25.3797 14.2523 26.1523C14.6039 27.3045 15.2376 28.2879 16.1656 29.1224L16.9093 29.791L16.8363 31.7569C16.7934 32.9086 16.6642 34.0608 16.5244 34.5391C15.8425 36.8706 15.6663 37.7456 15.5241 39.5039C15.3486 41.6733 15.4141 42.2783 15.8708 42.7037C16.1802 42.992 16.3991 43 24 43C31.6009 43 31.8198 42.992 32.1292 42.7037C32.5859 42.2783 32.6514 41.6733 32.4759 39.5039C32.3337 37.7456 32.1575 36.8706 31.4756 34.5391C31.3356 34.0602 31.2066 32.908 31.1636 31.7527L31.0904 29.7827L31.7796 29.176C32.691 28.3739 33.2595 27.5236 33.6612 26.3627C33.9481 25.5332 33.9998 25.0123 34.0606 22.3301C34.0991 20.6361 34.0868 19.25 34.0333 19.25C33.9798 19.25 33.5206 19.3907 33.0128 19.5626C31.912 19.9356 30.6473 19.8911 29.6316 19.4439C28.9749 19.1547 28.9704 19.1547 28.3047 19.4577C27.819 19.6785 27.3032 19.766 26.4145 19.7775C25.5711 19.7885 25.1109 19.8617 24.9301 20.0134C24.1523 20.6661 22.7159 21.1797 21.668 21.1797C21.1806 21.1797 21.1797 21.181 21.1797 21.9265C21.1797 22.5965 21.234 22.7208 21.7087 23.1377C22.8979 24.1817 23.4509 26.3599 22.6847 26.9814C22.492 27.1377 22.1837 27.2656 21.9997 27.2656C21.5095 27.2656 20.8828 26.7155 20.8828 26.2852C20.8828 25.6172 20.4762 24.9188 19.8614 24.5307C19.5322 24.3229 19.188 24.0131 19.0967 23.8424C18.9901 23.6433 18.9479 22.8131 18.979 21.526C19.0397 19.0082 19.0824 18.9531 20.9705 18.9531C22.5373 18.9531 23.2842 18.6736 23.8667 17.8697C24.2149 17.3889 24.2969 17.123 24.2969 16.4742C24.2969 15.5066 24.0315 14.9493 23.3071 14.3964L22.7623 13.9805L19.8558 13.9402C17.0651 13.9016 16.9195 13.914 16.207 14.2509Z" fill="#505AEE"/>
</svg>
