<svg width="24" height="24" viewBox="0 0 24 24" fill="none" xmlns="http://www.w3.org/2000/svg">
<path d="M5.77778 18.3C5.77778 18.7509 5.96508 19.1833 6.29848 19.5021C6.63187 19.8209 7.08406 20 7.55556 20H16.4444C16.9159 20 17.3681 19.8209 17.7015 19.5021C18.0349 19.1833 18.2222 18.7509 18.2222 18.3V8.1H20V6.4H16.4444V4.7C16.4444 4.24913 16.2571 3.81673 15.9237 3.49792C15.5903 3.17911 15.1382 3 14.6667 3H9.33333C8.86184 3 8.40965 3.17911 8.07625 3.49792C7.74286 3.81673 7.55556 4.24913 7.55556 4.7V6.4H4V8.1H5.77778V18.3ZM9.33333 4.7H14.6667V6.4H9.33333V4.7ZM8.44444 8.1H16.4444V18.3H7.55556V8.1H8.44444Z" fill="url(#paint0_linear_201_214)"/>
<path d="M9 9H11V18H9V9ZM13 9H15V18H13V9Z" fill="url(#paint1_linear_201_214)"/>
<defs>
<linearGradient id="paint0_linear_201_214" x1="7.04348" y1="3" x2="20.4711" y2="17.5609" gradientUnits="userSpaceOnUse">
<stop stop-color="white" stop-opacity="0.5"/>
<stop offset="1" stop-color="white"/>
</linearGradient>
<linearGradient id="paint1_linear_201_214" x1="10.1413" y1="9" x2="17.0322" y2="14.293" gradientUnits="userSpaceOnUse">
<stop stop-color="white" stop-opacity="0.5"/>
<stop offset="1" stop-color="white"/>
</linearGradient>
</defs>
</svg>
