<svg width="48" height="48" viewBox="0 0 48 48" fill="none" xmlns="http://www.w3.org/2000/svg">
<path fill-rule="evenodd" clip-rule="evenodd" d="M37.8243 11.148C37.375 11.2635 34.6373 12.4769 31.7405 13.8444C28.8438 15.212 26.417 16.3309 26.3477 16.3309C26.2784 16.3309 23.6607 15.3219 20.5305 14.0887C17.4003 12.8555 14.5042 11.8015 14.0948 11.7468C12.7333 11.5644 11.7533 12.186 11.371 13.4742C11.0832 14.4448 11.2313 14.6549 13.1193 15.9559C14.0772 16.6158 15.7591 17.7767 16.857 18.5358L18.8533 19.9159L16.7909 20.9154L14.7285 21.9148L11.0588 21C9.0405 20.4968 7.29027 20.1233 7.16922 20.1702C6.91925 20.2671 5 23.6948 5 24.0446C5 24.3783 5.40251 24.5964 8.09692 25.7222C10.6795 26.8014 10.6257 26.7453 9.61545 27.3104C9.36429 27.451 9.15873 27.6674 9.15873 27.7914C9.15873 28.032 10.5873 31.2771 10.8319 31.5921C10.9119 31.6953 11.1138 31.7796 11.2804 31.7796C11.4471 31.7796 14.1675 30.5574 17.3256 29.0635L23.0678 26.3475L23.2426 24.4744C23.3387 23.4443 23.4547 22.5405 23.5003 22.466C23.6417 22.235 24.1428 22.3167 24.2776 22.5929C24.3561 22.7535 24.1605 25.4141 23.773 29.4548C23.0024 37.4878 23.0152 37.1468 23.4808 37.2648C24.0161 37.4005 24.411 37.22 24.8498 36.6389C25.1179 36.284 26.1473 33.4014 28.0931 27.557C30.061 21.6463 31.025 18.9489 31.2064 18.8465C31.3968 18.7388 31.5306 18.7604 31.6933 18.9246C31.8933 19.1265 31.8578 19.3321 31.3652 20.8251C31.0613 21.7459 30.8447 22.5317 30.8839 22.5711C30.9696 22.6576 39.7407 18.5277 40.5399 18.0244C42.3365 16.8932 43.3725 14.7806 42.8758 13.2611C42.6419 12.5455 41.939 11.7412 41.227 11.3744C40.4762 10.9875 38.8651 10.8803 37.8243 11.148Z" fill="#505AEE"/>
</svg>
