<svg width="48" height="48" viewBox="0 0 48 48" fill="none" xmlns="http://www.w3.org/2000/svg">
<path fill-rule="evenodd" clip-rule="evenodd" d="M19.0015 7.10148C17.301 7.44726 16.4215 8.49263 16.1987 10.4328L16.0945 11.3403H11.4962C7.88013 11.3403 6.91247 11.3793 6.9662 11.523C7.00376 11.6236 7.98716 14.5249 9.15165 17.9707L11.269 24.2355L11.7736 24.4432C12.1664 24.6049 12.9604 24.6422 15.3559 24.6114L18.4336 24.5719L18.4798 23.7695C18.5595 22.3819 18.266 22.4519 24 22.4519C29.734 22.4519 29.4405 22.3819 29.5202 23.7695L29.5664 24.5719L32.6441 24.6114C35.0396 24.6422 35.8336 24.6049 36.2264 24.4432L36.731 24.2355L38.8484 17.9707C40.0128 14.5249 40.9962 11.6236 41.0338 11.523C41.0875 11.3793 40.1199 11.3403 36.5038 11.3403H31.9055L31.8016 10.4265C31.6183 8.81662 30.9731 7.84757 29.7148 7.29243C29.1889 7.0604 28.579 7.02736 24.3711 7.00294C21.7586 6.98788 19.3423 7.03218 19.0015 7.10148ZM29.2207 9.53537C29.4192 9.71228 29.4922 9.98744 29.4922 10.5588V11.3403H24H18.5078V10.5842C18.5078 9.23418 18.2571 9.2934 23.9742 9.2934C28.3952 9.2934 28.9795 9.3203 29.2207 9.53537ZM5.01084 25.1035L5 37.3316L5.4082 38.0956C5.91497 39.0442 6.74592 39.6523 7.80339 39.8483C8.89426 40.0505 39.1057 40.0505 40.1966 39.8483C41.2541 39.6523 42.085 39.0442 42.5918 38.0956L43 37.3316L42.9892 25.1035L42.9783 12.8754L40.9125 18.9273C39.6182 22.7189 38.7087 25.1575 38.4773 25.4561C38.274 25.7184 37.856 26.0875 37.548 26.2759C37.0097 26.6056 36.8465 26.6216 33.2773 26.6919L29.5664 26.765L29.5202 27.5674C29.4405 28.955 29.734 28.885 24 28.885C18.266 28.885 18.5595 28.955 18.4798 27.5674L18.4336 26.765L14.7227 26.6919C11.1535 26.6216 10.9903 26.6056 10.452 26.2759C10.144 26.0875 9.72595 25.7184 9.52274 25.4561C9.29133 25.1575 8.38185 22.7189 7.08748 18.9273L5.02167 12.8754L5.01084 25.1035ZM20.649 24.6941C20.6058 24.8047 20.5908 25.3158 20.6155 25.83L20.6602 26.765H24H27.3398V25.6684V24.5719L24.0335 24.5326C21.3384 24.5004 20.7127 24.5304 20.649 24.6941Z" fill="#505AEE"/>
</svg>
